HIERARCHY
ROOT Hips
{
    OFFSET 0.0 0.0 0.0
    CHANNELS 6 Xposition Yposition Zposition Zrotation Xrotation Yrotation
    JOINT LeftHipJoint
    {
        OFFSET 0.1 0.0 0.0
        CHANNELS 3 Zrotation Xrotation Yrotation
        JOINT LeftUpLeg
        {
            OFFSET 128.28218696293922 0.0 0.0
            CHANNELS 3 Zrotation Xrotation Yrotation
            JOINT LeftLeg
            {
                OFFSET 0.0 0.0 -427.28535897766255
                CHANNELS 3 Zrotation Xrotation Yrotation
                JOINT LeftFoot
                {
                    OFFSET 0.0 0.0 -389.3870595807565
                    CHANNELS 3 Zrotation Xrotation Yrotation
                    End Site
                    {
                        OFFSET 0.0 -0.1 0.0
                    }
                }
            }
        }
    }
    JOINT LowerBack
    {
        OFFSET 0.0 0.0 0.1
        CHANNELS 3 Zrotation Xrotation Yrotation
        JOINT Spine
        {
            OFFSET 0.0 0.0 218.76537422534898
            CHANNELS 3 Zrotation Xrotation Yrotation
            JOINT Spine1
            {
                OFFSET 0.0 0.0 251.1710154158016
                CHANNELS 3 Zrotation Xrotation Yrotation
                JOINT LeftShoulder
                {
                    OFFSET 0.1 0.0 0.0
                    CHANNELS 3 Zrotation Xrotation Yrotation
                    JOINT LeftArm
                    {
                        OFFSET 142.4587831115723 0.0 0.0
                        CHANNELS 3 Zrotation Xrotation Yrotation
                        JOINT LeftForeArm
                        {
                            OFFSET 266.27758742981416 0.0 0.0
                            CHANNELS 3 Zrotation Xrotation Yrotation
                            JOINT LeftHand
                            {
                                OFFSET 247.65551350645273 0.0 0.0
                                CHANNELS 3 Zrotation Xrotation Yrotation
                                End Site
                                {
                                    OFFSET 0.1 0.0 0.0
                                }
                            }
                        }
                    }
                }
                JOINT Neck
                {
                    OFFSET 0.0 0.0 0.1
                    CHANNELS 3 Zrotation Xrotation Yrotation
                    JOINT Neck1
                    {
                        OFFSET 0.0 0.0 103.70871087641927
                        CHANNELS 3 Zrotation Xrotation Yrotation
                        End Site
                        {
                            OFFSET 0.0 0.0 112.46315845359184
                        }
                    }
                }
                JOINT RightShoulder
                {
                    OFFSET -0.1 0.0 0.0
                    CHANNELS 3 Zrotation Xrotation Yrotation
                    JOINT RightArm
                    {
                        OFFSET -142.4587831115723 0.0 0.0
                        CHANNELS 3 Zrotation Xrotation Yrotation
                        JOINT RightForeArm
                        {
                            OFFSET -266.27758742981416 0.0 0.0
                            CHANNELS 3 Zrotation Xrotation Yrotation
                            JOINT RightHand
                            {
                                OFFSET -247.65551350645273 0.0 0.0
                                CHANNELS 3 Zrotation Xrotation Yrotation
                                End Site
                                {
                                    OFFSET -0.1 0.0 0.0
                                }
                            }
                        }
                    }
                }
            }
        }
    }
    JOINT RightHipJoint
    {
        OFFSET -0.1 0.0 0.0
        CHANNELS 3 Zrotation Xrotation Yrotation
        JOINT RightUpLeg
        {
            OFFSET -128.28218696293922 0.0 0.0
            CHANNELS 3 Zrotation Xrotation Yrotation
            JOINT RightLeg
            {
                OFFSET 0.0 0.0 -427.28535897766255
                CHANNELS 3 Zrotation Xrotation Yrotation
                JOINT RightFoot
                {
                    OFFSET 0.0 0.0 -389.3870595807565
                    CHANNELS 3 Zrotation Xrotation Yrotation
                    End Site
                    {
                        OFFSET 0.0 -0.1 0.0
                    }
                }
            }
        }
    }
}
MOTION
Frames: 7
Frame Time: 0.03333333333333333
0.0 0.0 819.3586374510146 32.19163936747776 -7.67557695690231 4.066931516826911 0.0 0.0 0.0 -0.1850588901982438 -5.115738897172121 1.378576094473288 2.0157643540532235 29.97781584708623 -1.9956709309147151 0.0 0.0 7.951386703658792e-16 0.0 0.0 0.0 0.1963918321558086 5.327927899553468 8.220199706537521 5.347923750837217 -4.249578582244604e-16 -5.771570770909287e-16 2.758691436281349e-33 7.951386703658792e-16 -3.975693351829396e-16 -3.7636793534931483 15.07034079910701 64.61184313710207 -120.39625998231753 -4.829866798058946e-15 2.7663001398000036e-15 0.0 0.0 0.0 2.758691436281349e-33 7.951386703658792e-16 -3.975693351829396e-16 -16.024360516759213 -1.6750379512335718 -8.015725505818992 2.758691436281349e-33 7.951386703658792e-16 -3.975693351829396e-16 22.614486810607836 -48.55645516952199 -14.332127714133776 110.4929250542643 -8.639657106408088e-15 -9.865449937734396e-15 3.975693351829396e-16 0.0 0.0 0.0 0.0 0.0 -0.009002968001649419 -0.15630890519454163 -2.6725812281002894 -0.4307469088806451 37.3094480028473 -0.026078814318963067 0.0 0.0 0.0
0.0 0.0 819.3586374510146 32.06620706676523 -7.606785703363572 4.163982652255192 -6.3611093629270335e-15 2.2069531490250793e-32 -3.975693351829396e-16 -0.2018654903402125 -5.156405105734333 1.163224906180095 1.9821908150040404 29.885894146707344 -1.8548624575105161 0.0 0.0 0.0 -6.3611093629270335e-15 2.2069531490250793e-32 -3.975693351829396e-16 0.21569149490891124 5.415050212749791 8.214310082946282 5.310084827030037 -9.24388927464553e-16 5.813816462504606e-15 -6.3611093629270335e-15 7.951386703658792e-16 3.975693351829396e-16 -3.9759555485359144 15.082072970171268 64.703882366771 -120.34222080093022 -2.219345139926253e-14 -1.9399578605934727e-15 0.0 0.0 0.0 -6.3611093629270335e-15 7.951386703658792e-16 3.975693351829396e-16 -15.91476876746631 -1.5552412006840064 -8.286166436669374 -6.3611093629270335e-15 7.951386703658792e-16 3.975693351829396e-16 22.4631461106186 -48.231910355333014 -14.453772589038856 110.78348491348216 -3.4291044466531093e-15 -6.230640665520789e-15 -1.987846675914698e-16 0.0 0.0 -6.3611093629270335e-15 2.2069531490250793e-32 -3.975693351829396e-16 -0.012867835521098235 -0.24194152716747663 -2.845039720498116 -0.4362164929822749 37.50212491770955 -0.053558876126779585 0.0 0.0 0.0
0.0 0.0 819.3586374510146 31.99674464277843 -7.5201182040174235 4.322066834071328 5.517382872562698e-33 1.5902773407317584e-15 -3.975693351829396e-16 -0.22110834447352307 -5.266546021824263 0.8478142820895048 1.890473663355878 29.84984233912327 -1.7161913168349487 0.0 0.0 0.0 5.517382872562698e-33 1.5902773407317584e-15 -3.975693351829396e-16 0.23421633717186868 5.492373669133181 8.144200967512514 5.165816417681894 1.9499942255760235e-15 -8.839131361601649e-16 -6.3611093629270335e-15 -1.1034765745125397e-32 1.987846675914698e-16 -4.1800664358152195 15.086879352358253 64.71536554330338 -120.20566290364073 -1.9438456612387938e-14 -3.498839976611306e-15 0.0 0.0 0.0 -6.3611093629270335e-15 -1.1034765745125397e-32 1.987846675914698e-16 -15.8401628480711 -1.5372201587294891 -8.467654750976125 -6.3611093629270335e-15 -1.1034765745125397e-32 1.987846675914698e-16 22.471732503602823 -48.00797170482916 -14.413793426396653 111.08365720764859 -5.398715836507981e-15 7.867478633758935e-15 -3.975693351829396e-16 0.0 0.0 5.517382872562698e-33 1.5902773407317584e-15 -3.975693351829396e-16 -0.016499787151522564 -0.31251608895456706 -3.1022674875365195 -0.5129162988834265 37.621663336703364 -0.03538917664380849 0.0 0.0 1.5902773407317584e-15
0.0 0.0 819.3586374510146 31.8416074306198 -7.274869354081859 4.35259565844294 -6.3611093629270335e-15 1.5902773407317584e-15 8.827812596100317e-32 -0.24556970500490913 -5.63595189304989 0.78174166208462 1.9125514088333893 29.968097527868157 -1.7205649616972736 0.0 0.0 0.0 -6.3611093629270335e-15 1.5902773407317584e-15 8.827812596100317e-32 0.24083956195121572 5.453476369471256 8.075376764397538 5.100073014560567 -9.358600164040203e-16 -3.142027946499996e-15 0.0 0.0 1.987846675914698e-16 -4.135101511010116 14.934219291587327 64.80405251866908 -120.21037932033484 9.374486780932754e-15 1.9479722367743682e-15 6.3611093629270335e-15 0.0 0.0 0.0 0.0 1.987846675914698e-16 -15.745703461997612 -1.71422008910734 -8.448044435891621 0.0 0.0 1.987846675914698e-16 22.34428393276859 -47.649675878143746 -14.404663027881682 111.56478644503042 -1.0558459366763538e-16 1.1467166910650314e-14 0.0 0.0 0.0 -6.3611093629270335e-15 1.5902773407317584e-15 8.827812596100317e-32 -0.029037824980115774 -0.5876473184284129 -3.126750901953653 -0.46651149121112445 37.720193643349496 -0.0874894919094285 0.0 0.0 -1.5902773407317584e-15
0.0 0.0 819.3586374510146 31.63467786053098 -7.000968527993269 4.380446842141089 0.0 0.0 -3.9756933518293955e-16 -0.25847660034827263 -5.910336995195295 0.6945987740318952 1.8667209376703786 29.971783054108286 -1.752406034480764 0.0 0.0 0.0 0.0 0.0 -3.9756933518293955e-16 0.23995732472626263 5.420248145299917 8.045024241256725 5.028822095312644 1.1479556091250083e-15 -1.0452913028026927e-15 -6.3611093629270335e-15 6.620859447075238e-32 -1.1927080055488188e-15 -4.041284502313918 14.822723839144018 64.84452680421812 -120.33594918246607 7.708326955462997e-15 1.0245268511688668e-14 0.0 0.0 0.0 -6.3611093629270335e-15 6.620859447075238e-32 -1.1927080055488188e-15 -15.61748120049505 -1.8738905510916644 -8.45514057843886 -6.3611093629270335e-15 6.620859447075238e-32 -1.1927080055488188e-15 22.134819645907157 -47.11536189382337 -14.472342608647088 112.09334295513648 -5.3291854710590546e-15 7.914741622508503e-15 3.975693351829396e-16 0.0 0.0 0.0 0.0 -3.9756933518293955e-16 -0.04562852703256112 -0.9631866294688386 -3.195736416966965 -0.5171194552361035 37.842238414026944 -0.06407879401716125 0.0 0.0 1.5902773407317584e-15
0.0 0.0 819.3586374510146 31.577508287881102 -6.749434094129405 4.322737353880553 0.0 0.0 0.0 -0.2659802672666765 -6.193224145099249 0.7583229612949172 1.871041659146311 29.890580650558988 -1.7191635678731565 0.0 0.0 7.951386703658792e-16 0.0 0.0 0.0 0.23518111590016796 5.412518986462449 8.07594318345255 4.925469396989404 4.740774023147822e-16 1.7703262022909266e-15 0.0 0.0 -5.963540027744094e-16 -4.161040407617059 14.79984282160406 64.80825394834781 -120.53428014025374 -2.0713693597103986e-15 1.1830631942774237e-15 0.0 0.0 0.0 0.0 0.0 -5.963540027744094e-16 -15.583595339891673 -1.9820188962840142 -8.454004616924268 0.0 0.0 -5.963540027744094e-16 21.97751106539915 -46.45928331660581 -14.509800728933445 112.70467943725735 3.5245902281551473e-15 -5.295373079463922e-15 -1.987846675914698e-16 0.0 0.0 0.0 0.0 0.0 -0.059592702832263596 -1.3024283539554475 -3.1121613441537948 -0.4920495658999752 38.05895489293393 -0.18638758298231514 0.0 0.0 1.5902773407317584e-15
0.0 0.0 819.3586374510146 31.56708208331083 -6.546699661656494 4.293517048813763 0.0 0.0 -3.9756933518293955e-16 -0.2777220703019641 -6.4663715937152 0.7843433539008096 1.8923478019825257 29.97439689825594 -1.7389350748413206 -2.2069531490250793e-32 -3.1805546814635168e-15 -7.951386703658792e-16 0.0 0.0 -3.9756933518293955e-16 0.23794053217388036 5.478924827680086 8.009092425918046 4.838452328362486 4.1399675656999365e-16 3.8043322423933285e-16 -6.3611093629270335e-15 7.951386703658792e-16 1.9878466759146985e-16 -4.331662821812531 14.733716771820747 64.83335648442373 -120.73706877263994 -7.361705975958983e-15 -1.7767073636747062e-14 0.0 0.0 0.0 -6.3611093629270335e-15 7.951386703658792e-16 1.9878466759146985e-16 -15.44183063766891 -2.174409656522339 -8.52832523879702 -6.3611093629270335e-15 7.951386703658792e-16 1.9878466759146985e-16 22.05157121020539 -45.61262081627328 -14.415859917041361 113.00936874650839 5.304725938450063e-15 3.5104978343609715e-15 -1.987846675914698e-16 0.0 0.0 0.0 0.0 -3.9756933518293955e-16 -0.07266948287296195 -1.6034484173899068 -3.086897439605901 -0.47902163951248516 38.40037088949397 -0.26476952734410303 0.0 0.0 0.0
